<svg width="165" height="43" viewBox="0 0 165 43" fill="none" xmlns="http://www.w3.org/2000/svg">
<path opacity="0.9" d="M13 11.8602C13 6.28182 18.0225 2.04702 23.5207 2.98956L42.6759 6.27331C44.5962 6.60251 46 8.26744 46 10.2158V19.1398C46 24.7182 40.9775 28.953 35.4793 28.0104L16.3241 24.7267C14.4038 24.3975 13 22.7326 13 20.7842V11.8602Z" stroke="#973af1" stroke-width="2"/>
<path opacity="0.7" d="M7 17.8602C7 12.2818 12.0225 8.04702 17.5207 8.98956L36.6759 12.2733C38.5962 12.6025 40 14.2674 40 16.2158V25.1398C40 30.7182 34.9775 34.953 29.4793 34.0104L10.3241 30.7267C8.4038 30.3975 7 28.7326 7 26.7842V17.8602Z" stroke="#973af1" stroke-width="2"/>
<path opacity="0.4" d="M1 23.8602C1 18.2818 6.02254 14.047 11.5207 14.9896L30.6759 18.2733C32.5962 18.6025 34 20.2674 34 22.2158V31.1398C34 36.7182 28.9775 40.953 23.4793 40.0104L4.32414 36.7267C2.4038 36.3975 1 34.7326 1 32.7842V23.8602Z" stroke="#973af1" stroke-width="2"/>
<path d="M63.5 7.96C64.98 7.96 66.2733 8.25333 67.38 8.84C68.4867 9.42667 69.34 10.2533 69.94 11.32C70.5533 12.3733 70.86 13.5933 70.86 14.98C70.86 16.3533 70.5533 17.5733 69.94 18.64C69.34 19.7067 68.48 20.5333 67.36 21.12C66.2533 21.7067 64.9667 22 63.5 22H58.24V7.96H63.5ZM63.28 19.04C64.5733 19.04 65.58 18.6867 66.3 17.98C67.02 17.2733 67.38 16.2733 67.38 14.98C67.38 13.6867 67.02 12.68 66.3 11.96C65.58 11.24 64.5733 10.88 63.28 10.88H61.66V19.04H63.28ZM74.4913 9.68C73.8913 9.68 73.3979 9.50667 73.0113 9.16C72.6379 8.8 72.4513 8.36 72.4513 7.84C72.4513 7.30667 72.6379 6.86667 73.0113 6.52C73.3979 6.16 73.8913 5.98 74.4913 5.98C75.0779 5.98 75.5579 6.16 75.9313 6.52C76.3179 6.86667 76.5113 7.30667 76.5113 7.84C76.5113 8.36 76.3179 8.8 75.9313 9.16C75.5579 9.50667 75.0779 9.68 74.4913 9.68ZM76.1913 10.84V22H72.7713V10.84H76.1913ZM82.9097 10.68C83.6964 10.68 84.383 10.84 84.9697 11.16C85.5697 11.48 86.0297 11.9 86.3497 12.42V10.84H89.7697V21.98C89.7697 23.0067 89.563 23.9333 89.1497 24.76C88.7497 25.6 88.1297 26.2667 87.2897 26.76C86.463 27.2533 85.4297 27.5 84.1897 27.5C82.5364 27.5 81.1964 27.1067 80.1697 26.32C79.143 25.5467 78.5564 24.4933 78.4097 23.16H81.7897C81.8964 23.5867 82.1497 23.92 82.5497 24.16C82.9497 24.4133 83.443 24.54 84.0297 24.54C84.7364 24.54 85.2964 24.3333 85.7097 23.92C86.1364 23.52 86.3497 22.8733 86.3497 21.98V20.4C86.0164 20.92 85.5564 21.3467 84.9697 21.68C84.383 22 83.6964 22.16 82.9097 22.16C81.9897 22.16 81.1564 21.9267 80.4097 21.46C79.663 20.98 79.0697 20.3067 78.6297 19.44C78.203 18.56 77.9897 17.5467 77.9897 16.4C77.9897 15.2533 78.203 14.2467 78.6297 13.38C79.0697 12.5133 79.663 11.8467 80.4097 11.38C81.1564 10.9133 81.9897 10.68 82.9097 10.68ZM86.3497 16.42C86.3497 15.5667 86.1097 14.8933 85.6297 14.4C85.163 13.9067 84.5897 13.66 83.9097 13.66C83.2297 13.66 82.6497 13.9067 82.1697 14.4C81.703 14.88 81.4697 15.5467 81.4697 16.4C81.4697 17.2533 81.703 17.9333 82.1697 18.44C82.6497 18.9333 83.2297 19.18 83.9097 19.18C84.5897 19.18 85.163 18.9333 85.6297 18.44C86.1097 17.9467 86.3497 17.2733 86.3497 16.42ZM93.9639 9.68C93.3639 9.68 92.8706 9.50667 92.4839 9.16C92.1106 8.8 91.9239 8.36 91.9239 7.84C91.9239 7.30667 92.1106 6.86667 92.4839 6.52C92.8706 6.16 93.3639 5.98 93.9639 5.98C94.5506 5.98 95.0306 6.16 95.4039 6.52C95.7906 6.86667 95.9839 7.30667 95.9839 7.84C95.9839 8.36 95.7906 8.8 95.4039 9.16C95.0306 9.50667 94.5506 9.68 93.9639 9.68ZM95.6639 10.84V22H92.2439V10.84H95.6639ZM107.401 18.8L109.821 10.84H113.461L109.501 22H105.281L101.321 10.84H104.981L107.401 18.8ZM114.32 14.96C114.32 13.5733 114.62 12.34 115.22 11.26C115.82 10.1667 116.653 9.32 117.72 8.72C118.8 8.10667 120.02 7.8 121.38 7.8C123.047 7.8 124.473 8.24 125.66 9.12C126.847 10 127.64 11.2 128.04 12.72H124.28C124 12.1333 123.6 11.6867 123.08 11.38C122.573 11.0733 121.993 10.92 121.34 10.92C120.287 10.92 119.433 11.2867 118.78 12.02C118.127 12.7533 117.8 13.7333 117.8 14.96C117.8 16.1867 118.127 17.1667 118.78 17.9C119.433 18.6333 120.287 19 121.34 19C121.993 19 122.573 18.8467 123.08 18.54C123.6 18.2333 124 17.7867 124.28 17.2H128.04C127.64 18.72 126.847 19.92 125.66 20.8C124.473 21.6667 123.047 22.1 121.38 22.1C120.02 22.1 118.8 21.8 117.72 21.2C116.653 20.5867 115.82 19.74 115.22 18.66C114.62 17.58 114.32 16.3467 114.32 14.96ZM129.455 16.4C129.455 15.2533 129.668 14.2467 130.095 13.38C130.535 12.5133 131.128 11.8467 131.875 11.38C132.621 10.9133 133.455 10.68 134.375 10.68C135.161 10.68 135.848 10.84 136.435 11.16C137.035 11.48 137.495 11.9 137.815 12.42V10.84H141.235V22H137.815V20.42C137.481 20.94 137.015 21.36 136.415 21.68C135.828 22 135.141 22.16 134.355 22.16C133.448 22.16 132.621 21.9267 131.875 21.46C131.128 20.98 130.535 20.3067 130.095 19.44C129.668 18.56 129.455 17.5467 129.455 16.4ZM137.815 16.42C137.815 15.5667 137.575 14.8933 137.095 14.4C136.628 13.9067 136.055 13.66 135.375 13.66C134.695 13.66 134.115 13.9067 133.635 14.4C133.168 14.88 132.935 15.5467 132.935 16.4C132.935 17.2533 133.168 17.9333 133.635 18.44C134.115 18.9333 134.695 19.18 135.375 19.18C136.055 19.18 136.628 18.9333 137.095 18.44C137.575 17.9467 137.815 17.2733 137.815 16.42ZM147.129 12.7C147.529 12.0867 148.029 11.6067 148.629 11.26C149.229 10.9 149.895 10.72 150.629 10.72V14.34H149.689C148.835 14.34 148.195 14.5267 147.769 14.9C147.342 15.26 147.129 15.9 147.129 16.82V22H143.709V10.84H147.129V12.7ZM151.583 16.4C151.583 15.2533 151.797 14.2467 152.223 13.38C152.663 12.5133 153.257 11.8467 154.003 11.38C154.75 10.9133 155.583 10.68 156.503 10.68C157.237 10.68 157.903 10.8333 158.503 11.14C159.117 11.4467 159.597 11.86 159.943 12.38V7.2H163.363V22H159.943V20.4C159.623 20.9333 159.163 21.36 158.563 21.68C157.977 22 157.29 22.16 156.503 22.16C155.583 22.16 154.75 21.9267 154.003 21.46C153.257 20.98 152.663 20.3067 152.223 19.44C151.797 18.56 151.583 17.5467 151.583 16.4ZM159.943 16.42C159.943 15.5667 159.703 14.8933 159.223 14.4C158.757 13.9067 158.183 13.66 157.503 13.66C156.823 13.66 156.243 13.9067 155.763 14.4C155.297 14.88 155.063 15.5467 155.063 16.4C155.063 17.2533 155.297 17.9333 155.763 18.44C156.243 18.9333 156.823 19.18 157.503 19.18C158.183 19.18 158.757 18.9333 159.223 18.44C159.703 17.9467 159.943 17.2733 159.943 16.42Z" fill="#973af1"/>
<path d="M118.705 31.645C119.265 31.745 119.74 32.04 120.13 32.53C120.52 33.02 120.715 33.575 120.715 34.195C120.715 34.725 120.575 35.205 120.295 35.635C120.025 36.055 119.63 36.39 119.11 36.64C118.59 36.88 117.985 37 117.295 37H113.125V26.575H117.1C117.81 26.575 118.42 26.695 118.93 26.935C119.44 27.175 119.825 27.5 120.085 27.91C120.345 28.31 120.475 28.76 120.475 29.26C120.475 29.86 120.315 30.36 119.995 30.76C119.675 31.16 119.245 31.455 118.705 31.645ZM114.835 30.955H116.95C117.51 30.955 117.945 30.83 118.255 30.58C118.575 30.32 118.735 29.95 118.735 29.47C118.735 29 118.575 28.635 118.255 28.375C117.945 28.105 117.51 27.97 116.95 27.97H114.835V30.955ZM117.145 35.605C117.725 35.605 118.18 35.465 118.51 35.185C118.84 34.905 119.005 34.515 119.005 34.015C119.005 33.505 118.83 33.1 118.48 32.8C118.13 32.5 117.665 32.35 117.085 32.35H114.835V35.605H117.145ZM130.058 28.735V37H128.348V36.025C128.078 36.365 127.723 36.635 127.283 36.835C126.853 37.025 126.393 37.12 125.903 37.12C125.253 37.12 124.668 36.985 124.148 36.715C123.638 36.445 123.233 36.045 122.933 35.515C122.643 34.985 122.498 34.345 122.498 33.595V28.735H124.193V33.34C124.193 34.08 124.378 34.65 124.748 35.05C125.118 35.44 125.623 35.635 126.263 35.635C126.903 35.635 127.408 35.44 127.778 35.05C128.158 34.65 128.348 34.08 128.348 33.34V28.735H130.058ZM133.184 27.64C132.874 27.64 132.614 27.535 132.404 27.325C132.194 27.115 132.089 26.855 132.089 26.545C132.089 26.235 132.194 25.975 132.404 25.765C132.614 25.555 132.874 25.45 133.184 25.45C133.484 25.45 133.739 25.555 133.949 25.765C134.159 25.975 134.264 26.235 134.264 26.545C134.264 26.855 134.159 27.115 133.949 27.325C133.739 27.535 133.484 27.64 133.184 27.64ZM134.024 28.735V37H132.314V28.735H134.024ZM137.98 25.9V37H136.27V25.9H137.98ZM139.655 32.83C139.655 32 139.825 31.265 140.165 30.625C140.515 29.985 140.985 29.49 141.575 29.14C142.175 28.78 142.84 28.6 143.57 28.6C144.11 28.6 144.64 28.72 145.16 28.96C145.69 29.19 146.11 29.5 146.42 29.89V25.9H148.145V37H146.42V35.755C146.14 36.155 145.75 36.485 145.25 36.745C144.76 37.005 144.195 37.135 143.555 37.135C142.835 37.135 142.175 36.955 141.575 36.595C140.985 36.225 140.515 35.715 140.165 35.065C139.825 34.405 139.655 33.66 139.655 32.83ZM146.42 32.86C146.42 32.29 146.3 31.795 146.06 31.375C145.83 30.955 145.525 30.635 145.145 30.415C144.765 30.195 144.355 30.085 143.915 30.085C143.475 30.085 143.065 30.195 142.685 30.415C142.305 30.625 141.995 30.94 141.755 31.36C141.525 31.77 141.41 32.26 141.41 32.83C141.41 33.4 141.525 33.9 141.755 34.33C141.995 34.76 142.305 35.09 142.685 35.32C143.075 35.54 143.485 35.65 143.915 35.65C144.355 35.65 144.765 35.54 145.145 35.32C145.525 35.1 145.83 34.78 146.06 34.36C146.3 33.93 146.42 33.43 146.42 32.86ZM157.966 32.665C157.966 32.975 157.946 33.255 157.906 33.505H151.591C151.641 34.165 151.886 34.695 152.326 35.095C152.766 35.495 153.306 35.695 153.946 35.695C154.866 35.695 155.516 35.31 155.896 34.54H157.741C157.491 35.3 157.036 35.925 156.376 36.415C155.726 36.895 154.916 37.135 153.946 37.135C153.156 37.135 152.446 36.96 151.816 36.61C151.196 36.25 150.706 35.75 150.346 35.11C149.996 34.46 149.821 33.71 149.821 32.86C149.821 32.01 149.991 31.265 150.331 30.625C150.681 29.975 151.166 29.475 151.786 29.125C152.416 28.775 153.136 28.6 153.946 28.6C154.726 28.6 155.421 28.77 156.031 29.11C156.641 29.45 157.116 29.93 157.456 30.55C157.796 31.16 157.966 31.865 157.966 32.665ZM156.181 32.125C156.171 31.495 155.946 30.99 155.506 30.61C155.066 30.23 154.521 30.04 153.871 30.04C153.281 30.04 152.776 30.23 152.356 30.61C151.936 30.98 151.686 31.485 151.606 32.125H156.181ZM161.358 29.935C161.608 29.515 161.938 29.19 162.348 28.96C162.768 28.72 163.263 28.6 163.833 28.6V30.37H163.398C162.728 30.37 162.218 30.54 161.868 30.88C161.528 31.22 161.358 31.81 161.358 32.65V37H159.648V28.735H161.358V29.935Z" fill="white"/>
</svg>
